# xmcd
#
# Track frame offsets: 
#        183
#        5733
#        26928
#        48685
#        63018
#        73320
#        90045
#        102810
#        116840
#        129003
#        133015
#        152423
#
# Disc length: 2288 seconds
#
# Revision: 4
# Processed by: cddbd v1.5.2PL0 Copyright (c) Steve Scherf et al.
# Submitted via: ExactAudioCopy v1.3
#
DISCID=9908ee0c
DTITLE=Steve Miller Band - Fly Like An Eagle
DYEAR=1976
DGENRE=Blues
TTITLE0=Space Intro
TTITLE1=Fly Like an Eagle
TTITLE2=Wild Mountain Honey
TTITLE3=Serenade
TTITLE4=Dance, Dance, Dance
TTITLE5=Mercury Blues
TTITLE6=Take the Money and Run
TTITLE7=Rock'n Me
TTITLE8=You Send Me
TTITLE9=Blue Odyssey
TTITLE10=Sweet Maree
TTITLE11=The Window
EXTD=YEAR: 1976
EXTT0=
EXTT1=
EXTT2=
EXTT3=
EXTT4=
EXTT5=
EXTT6=
EXTT7=
EXTT8=
EXTT9=
EXTT10=
EXTT11=
PLAYORDER=
